<svg width="46" height="45" viewBox="0 0 46 45" fill="none" xmlns="http://www.w3.org/2000/svg">
<path d="M21.7102 19.5548L21.2366 19.5294C16.1627 19.2604 11.9826 17.5569 8.76005 15.7227L8.12822 15.3546C6.33837 14.2869 4.85685 13.1961 3.70927 12.338H3.71025L3.43876 12.1349C3.20903 11.9628 2.99602 11.8035 2.79814 11.6573L2.24736 11.2599C2.14745 11.1899 2.05522 11.1266 1.97001 11.0704L1.73564 10.922H1.73368L1.70536 10.9044L1.60575 10.8458L1.48954 10.836L1.35771 10.8194C1.06599 10.7684 0.750149 10.6173 0.623333 10.3009L0.596966 10.2247C0.535088 10.0046 0.595652 9.75695 0.794231 9.56454L0.887981 9.48544C1.06708 9.3541 1.26368 9.3059 1.41533 9.29013L1.54911 9.28329C1.69099 9.28415 1.82437 9.30362 1.94365 9.33212L2.00126 9.34579H43.0872L43.1575 9.32529C43.3832 9.25768 43.6667 9.21232 43.9671 9.27158L44.097 9.3038C44.2773 9.3576 44.4698 9.46496 44.5989 9.63779L44.6497 9.71591C44.7391 9.87233 44.7545 10.0307 44.7259 10.17L44.6839 10.3028H44.6829C44.5396 10.6308 44.1572 10.8388 43.7483 10.839H43.5511L43.431 10.9122C43.3553 10.9584 43.2688 11.0143 43.1702 11.0802L42.8362 11.3116C42.6753 11.4259 42.5042 11.5507 42.3216 11.6856L41.7376 12.1202L41.3343 12.42C40.314 13.1797 39.0481 14.1051 37.553 15.0313L36.8977 15.4278C33.617 17.3695 29.2913 19.2419 24.0218 19.5284L23.5491 19.5538V20.0665C23.5489 20.4198 23.1994 20.8126 22.6292 20.8126C22.0589 20.8125 21.7104 20.4198 21.7102 20.0665V19.5548Z" fill="white" fill-opacity="0.9" stroke="black"/>
<path d="M22.6293 25.553C23.1996 25.553 23.5482 25.9467 23.5482 26.3001V32.5335C23.548 32.8868 23.1994 33.2796 22.6293 33.2796C22.059 33.2795 21.7105 32.8868 21.7103 32.5335V26.3001C21.7103 25.9467 22.0588 25.5531 22.6293 25.553Z" fill="white" fill-opacity="0.9" stroke="black"/>
<path d="M22.6295 38.0199C23.1999 38.0199 23.5485 38.4136 23.5485 38.7669V43.0062H33.983C34.5532 43.0063 34.902 43.4 34.902 43.7533C34.902 44.1066 34.5532 44.5002 33.983 44.5003H11.276C10.7057 44.5002 10.3571 44.1066 10.3571 43.7533C10.3571 43.3999 10.7057 43.0063 11.276 43.0062H21.7106V38.7669C21.7106 38.4135 22.059 38.0199 22.6295 38.0199Z" fill="white" fill-opacity="0.9" stroke="black"/>
<path d="M26.5555 29.5107L26.6581 29.5273C27.5521 29.7113 28.4053 29.9607 29.0926 30.3301L29.3768 30.4951C30.1485 30.9851 30.6444 31.6632 30.6444 32.5332C30.6444 33.2275 30.3425 33.766 29.87 34.2061C29.4473 34.5996 28.8972 34.9042 28.3368 35.1387L28.0956 35.2344C27.0995 35.6161 25.8679 35.8962 24.6151 36.1416L23.3631 36.3779L23.2401 36.4004C21.7824 36.6699 20.3772 36.9291 19.1913 37.2764L18.6961 37.4316C18.0073 37.6622 17.5015 37.9026 17.1395 38.1504C16.824 38.3663 16.5942 38.6039 16.4627 38.8682L16.4129 38.9834C16.2815 39.3299 15.8238 39.5918 15.326 39.4941L15.2254 39.4697C14.7723 39.3371 14.5789 38.9852 14.6219 38.6777L14.6551 38.5498C15.0767 37.439 16.2053 36.7329 17.4598 36.2461L18.0038 36.0498C19.064 35.6949 20.2949 35.4273 21.5174 35.1914L22.7313 34.9639C22.8053 34.9501 22.8833 34.935 22.9588 34.9209L22.9598 34.9219C24.4579 34.6449 25.8209 34.3835 26.8827 34.0371L27.3192 33.8828C27.8952 33.662 28.2601 33.4479 28.4852 33.2285C28.6022 33.1144 28.6876 32.9925 28.7411 32.8623C28.7959 32.7287 28.8065 32.6132 28.8065 32.5332C28.8065 32.4142 28.7892 32.2454 28.6756 32.0664C28.5999 31.9471 28.4961 31.8469 28.3758 31.7578L28.2499 31.6719L28.077 31.5713C27.7091 31.3748 27.2012 31.2001 26.5506 31.0488L26.2127 30.9756C25.7049 30.8711 25.4767 30.4852 25.5243 30.1602L25.537 30.0967V30.0957C25.6289 29.7513 26.0474 29.4529 26.5555 29.5107ZM32.9559 19.9346C33.2996 19.6343 33.8622 19.617 34.2313 19.8809L34.3026 19.9375C34.6085 20.2076 34.627 20.6079 34.3573 20.8936L34.2997 20.9492C33.7823 21.4011 33.0993 21.7588 32.3417 22.0508L32.0126 22.1719C31.3406 22.4085 30.5904 22.6103 29.7948 22.7871L28.9852 22.9561C27.5579 23.2356 25.9736 23.4583 24.3876 23.6621L22.8065 23.8613L21.8924 23.9756C19.7944 24.2396 17.8603 24.5044 16.3514 24.8604L15.7313 25.0186C15.0392 25.2107 14.523 25.4139 14.1708 25.6211L14.0292 25.71C13.9025 25.7964 13.814 25.8767 13.7528 25.9492L13.7001 26.0195C13.6919 26.0319 13.6841 26.0449 13.6766 26.0586L13.6131 26.1738L13.6141 26.3047C13.6166 26.5626 13.8056 26.9673 14.4198 27.3984L14.7098 27.585C15.4316 28.0101 16.5231 28.3949 18.0077 28.5986L18.6678 28.6748C19.1951 28.724 19.4837 29.092 19.4833 29.4229L19.4794 29.4883C19.4384 29.8265 19.0785 30.1664 18.5653 30.1641L18.4608 30.1582C16.5311 29.978 14.9807 29.526 13.8563 28.918L13.6366 28.7949C12.5121 28.1327 11.7763 27.2431 11.7762 26.2998C11.7762 25.6652 12.1168 25.1442 12.6249 24.7354L12.8524 24.5674V24.5664C13.3815 24.2053 14.0674 23.9265 14.8182 23.6992L15.1444 23.6045C16.4631 23.2384 18.1123 22.9677 19.8524 22.7295L21.6141 22.499L22.5409 22.3838C24.3768 22.155 26.2103 21.9268 27.8631 21.6338L28.5604 21.5039C29.4721 21.3253 30.2932 21.1264 30.995 20.8994L31.2879 20.8008C31.9614 20.5636 32.4674 20.311 32.8163 20.0479L32.9559 19.9346ZM21.329 1.80566C26.8729 -1.19213 33.0297 1.40645 35.9354 5.2793L36.2059 5.6582C36.4078 5.95452 36.3463 6.35908 35.9764 6.59863L35.8983 6.64453C35.4584 6.87589 34.916 6.75479 34.6473 6.44141L34.5975 6.37598L34.3612 6.0459C31.846 2.67954 26.9275 0.787675 22.6249 2.9043L22.3817 3.02344L22.3495 3.29395L22.1629 4.85742C22.1155 5.25337 21.8341 5.63294 21.3778 5.83496L21.1717 5.91016L17.5301 6.97656C17.0879 7.10595 16.6693 6.98368 16.4032 6.75C16.1743 6.54893 16.0728 6.28593 16.1297 6.01562L16.1639 5.89941L17.3641 2.73633C17.5501 2.24717 18.101 1.86628 18.7811 1.86621H21.2176L21.329 1.80566ZM18.9276 3.68164L18.7294 4.2041L18.3729 5.14355L19.3377 4.86133L20.034 4.65723L20.3514 4.56445L20.3905 4.23633L20.4286 3.91895L20.495 3.35938H19.0497L18.9276 3.68164Z" fill="white" fill-opacity="0.9" stroke="black"/>
</svg>
